<svg xmlns="http://www.w3.org/2000/svg" width="51.778" height="51.778" viewBox="0 0 51.778 51.778">
  <g id="Group_38" data-name="Group 38" transform="translate(-33 -43)">
    <rect id="Rectangle_9" data-name="Rectangle 9" width="51.778" height="51.778" rx="13.455" transform="translate(33 43)" fill="#be1e2d"/>
    <path id="Path_49" data-name="Path 49" d="M309.354,472.991a20.153,20.153,0,1,0,20.153,20.153A20.153,20.153,0,0,0,309.354,472.991Zm0,37.1a16.95,16.95,0,1,1,16.95-16.95A16.95,16.95,0,0,1,309.354,510.094Z" transform="translate(-250.465 -424.255)" fill="#231f20"/>
    <path id="Path_50" data-name="Path 50" d="M309.354,477.4a15.74,15.74,0,1,0,15.74,15.74A15.74,15.74,0,0,0,309.354,477.4Zm0,28.343a12.6,12.6,0,1,1,12.6-12.6A12.617,12.617,0,0,1,309.354,505.747Z" transform="translate(-250.465 -424.255)" fill="#231f20"/>
    <path id="Path_51" data-name="Path 51" d="M309.354,481.714a11.43,11.43,0,1,0,11.43,11.43A11.442,11.442,0,0,0,309.354,481.714Zm0,19.516a8.086,8.086,0,1,1,8.085-8.086A8.1,8.1,0,0,1,309.354,501.23Z" transform="translate(-250.465 -424.255)" fill="#231f20"/>
  </g>
</svg>
