<svg xmlns="http://www.w3.org/2000/svg" viewBox="0 0 379.26 148.32"><defs><style>.cls-1{fill:#bc202e;}</style></defs><g id="Layer_2" data-name="Layer 2"><g id="Layer_1-2" data-name="Layer 1"><path class="cls-1" d="M43.5,18.91h.42a16.35,16.35,0,0,1,8.87,2.17,25.12,25.12,0,0,1,3.59,2.34l1.67,1.34a10.06,10.06,0,0,1,2.35,1,12.32,12.32,0,0,1,2.84,2.6,23.32,23.32,0,0,1,3.26,4.93,50,50,0,0,1,4,10.63,86.09,86.09,0,0,1,2.76,20.66v1.84q0,10.29-3.18,17.48a79.82,79.82,0,0,1-6.19,11.46,81.86,81.86,0,0,1-5.6,7.53,60.91,60.91,0,0,1-5,5.36,42.74,42.74,0,0,1-7.2,5.6q-7.77,4.94-15.22,4.94H28.94A19,19,0,0,1,17.4,115a25.9,25.9,0,0,1-4.77-1.75,20,20,0,0,1-9.7-10.8A46,46,0,0,1,0,85.07V82.31c0-.39.11-.58.33-.58,1-.45,1.45-.7,1.51-.75L.33,77.29l-.08-.08C.81,71,1.45,66,2.17,62.24A95.57,95.57,0,0,1,5.6,49.19a59.71,59.71,0,0,1,5.36-11A40.11,40.11,0,0,1,31.45,21.5a52.23,52.23,0,0,1,8-2.26A24.77,24.77,0,0,1,43.5,18.91ZM2.76,73.53v.17A4.71,4.71,0,0,0,3,75.54h.17c.44,0,.67-.2.67-.59a18.12,18.12,0,0,0,.25-2.84c-.06-1-.17-1.51-.34-1.51-.44.06-.67.25-.67.59A8,8,0,0,0,2.76,73.53Zm2.43-7.86a20.1,20.1,0,0,0,.16,2.17,2,2,0,0,0,1.17-1.17,15.5,15.5,0,0,0,.09-2.34A84.71,84.71,0,0,1,9,55.55a47.9,47.9,0,0,1,3.68-7.87,21.93,21.93,0,0,0,2.1-4.52A13.14,13.14,0,0,0,15.48,41a1.94,1.94,0,0,0-1.26.84l-3.43,6.1q-3.25,6.52-3.6,8.87a24,24,0,0,0-1.84,6.52A15.78,15.78,0,0,0,5.19,65.67ZM15.56,40.32l.08.33c.23-.16.34-.3.34-.41l-.09-.17h-.16C15.67,40.07,15.61,40.15,15.56,40.32Zm3.51,32.21c0,.28.14,1.62.42,4v.92a5.56,5.56,0,0,1-1.67,4.35,2.58,2.58,0,0,0-.92,1.76c0,.11.17,1.12.5,3Q18,89.93,19.07,100a42.81,42.81,0,0,0,1.43,7.19c1.05,2.79,2.48,4.18,4.26,4.18h.42q4,0,12-8.53a41.93,41.93,0,0,0,4.26-6.53A110.14,110.14,0,0,0,49,79.14a159.11,159.11,0,0,0,5.1-18.24A89,89,0,0,0,56.05,44q0-11.53-5-14.14a6,6,0,0,0-2.68-.67h-.5q-3.51,0-9.12,3.69a24.31,24.31,0,0,0-2.93,2.59,56,56,0,0,0-5.1,7.28,110.22,110.22,0,0,0-7.11,13.63Q19.07,67,19.07,72.53Zm-2-34.8c1.22-1,1.84-1.68,1.84-2l.08-.25-.17-.84A3.56,3.56,0,0,0,17.07,37.73Zm34,69.18V107c0,.06.19.11.58.17a7.82,7.82,0,0,0,2.85-3.85,1.6,1.6,0,0,0-.84-.25Q51,105.91,51,106.91Zm4.26-6.61a6.47,6.47,0,0,0,.09.92,3.71,3.71,0,0,0,1.75-3.1c-1.22.95-1.84,1.65-1.84,2.1Zm3.27-5.19a1.43,1.43,0,0,0-.34.5l.17.09a.22.22,0,0,0,.25-.25A.54.54,0,0,0,58.56,95.11Zm9-25.09v.67a13,13,0,0,1-.5,3,68.59,68.59,0,0,1-2.43,8.11,51,51,0,0,1-3,6.19,20.06,20.06,0,0,0-2.51,5.44l-.42,1.34h.09a2.18,2.18,0,0,0,1.34-.92q.33-.67,2.26-4c1.44-2.67,2.62-5,3.51-7.11a30.88,30.88,0,0,0,1.25-4.18,18.86,18.86,0,0,0,1.59-5.19A14.29,14.29,0,0,0,69,70.52v-.59c0-1.33-.05-2-.16-2A2,2,0,0,0,67.59,70ZM59.06,81.65c.22.66.36,1,.42,1a.32.32,0,0,0,.25.08c.05-.17.17-.64.33-1.42v-.17A6.05,6.05,0,0,0,59.06,81.65Z"/><path class="cls-1" d="M101.22,0A7.27,7.27,0,0,1,105,2.17q2.26,2.6,3.6,3.94A15.63,15.63,0,0,0,112,8c.95.56,1.42,1.06,1.42,1.51a7.36,7.36,0,0,1,.34,2.51q0,2.83-7,33.37-2.43,10.71-3.93,20.25,17.4-1.85,23.09-2.6a25.54,25.54,0,0,1,5.6-.75h1.34a38.87,38.87,0,0,1,4.35.25A89.64,89.64,0,0,1,139,53.12q2.26-7.69,3.35-12.88A30.11,30.11,0,0,1,144,33.63q2.17-5.36,5.94-7.2a7.88,7.88,0,0,1,2.17-.41h.08c.12,0,.17,0,.17-.09A7.61,7.61,0,0,1,157,27.86a7.59,7.59,0,0,0,2.92,1.33,11.18,11.18,0,0,0,2.1.34,1.39,1.39,0,0,1,.66,1.09,16.92,16.92,0,0,1,.17,3q0,4.18-3.85,16.64a74.19,74.19,0,0,0-2.26,9.46q-2.41,10.79-5.35,22.5a7.26,7.26,0,0,0-.5,2.26q-2.59,10.2-2.59,10.54h-.09l.84-12.55v-.33a3.46,3.46,0,0,0-.17-1.09q1.51-6,3.35-12.3,1.17-4.42,3.18-13.38a23.57,23.57,0,0,0,.92-4.18A2.64,2.64,0,0,0,155,49h-.09c-.94.61-1.42,1.84-1.42,3.68a27.8,27.8,0,0,1-2.26,10.37,63.65,63.65,0,0,0-2.17,8.87q-1.75,9.28-3.93,17.4-2.26,9.54-4.19,20.58a18.58,18.58,0,0,0-.16,2.43v.58a20.56,20.56,0,0,0,.92,5.94h.08c.17-1.73.36-3.32.59-4.77h.08a6.3,6.3,0,0,1,.59,2.51,16.49,16.49,0,0,1-1.43,5.1,35.2,35.2,0,0,0-.67,3.77c-.11.5-.19.75-.25.75q-1.59-.92-5.43-.92t-4.6-1.67a12.78,12.78,0,0,1-1.43-4.27,23.21,23.21,0,0,1-.58-4.35v-.58a65.17,65.17,0,0,1,1.42-9.12q1.92-10.71,4.52-27-9.47,1.85-9.79,1.84c-6.81.45-12,1-15.48,1.51a26.93,26.93,0,0,0-5.94,1.5,10,10,0,0,1-1.59.5v-.08a4.37,4.37,0,0,0,1.76-1.51,1.37,1.37,0,0,1,.17-.58q0-.58-.84-.84h-.08a7.39,7.39,0,0,0-3.6,2.09c-.45.39-.67.67-.67.84v.17c0,.22.25.39.75.5,0,.05,0,.08.09.08s-.14.14-.42.25q-3.25,15.48-3.35,15.65a7.5,7.5,0,0,0-1.25,1.5Q91.6,113.6,91.6,114.1l-.17,1.42v.09c1.4-3.74,2.12-5.61,2.18-5.61q-2,10.47-3.77,29.78c-.17,1.84-.25,3.35-.25,4.52,0,.39,0,.95.08,1.67a2,2,0,0,1-1.25,1.93q-.33.33-4.77.33a12,12,0,0,1-1.59.09c-1.17,0-2.73-.9-4.68-2.68a15.56,15.56,0,0,1-3.43-5,12.83,12.83,0,0,1-1.34-5.44q0-3.09,7.78-46.51a19.84,19.84,0,0,1-1.84-3.85q-1.85-7.11-1.84-9V75c.05-2.51.19-3.76.42-3.76a6.5,6.5,0,0,1,3.18-1.26c2.06-.16,3.26-.27,3.59-.33q3.52-19.15,5.94-28.69Q93.11,26.93,96,12,98.3,0,101.22,0ZM85.33,77.29a9.57,9.57,0,0,0,.25,1.26,7,7,0,0,1,.16,1.51v.41a57.65,57.65,0,0,1-.58,6.86A28.9,28.9,0,0,1,83.82,92a12,12,0,0,0-.67,1.75A2.61,2.61,0,0,0,83.74,95a3.15,3.15,0,0,1,.33,1.42C84,97.93,84,98.88,84,99.21c.11,2.68.28,4,.5,4l.17.25a34.25,34.25,0,0,0,.67-5.36q.57-7.77.83-9.78a40.33,40.33,0,0,1,1.34-4.69,22.9,22.9,0,0,0,.92-5c.06,0,.08-.42.08-1.25,0-.56,0-1.56-.08-3q1.76-10.29,2.18-14.14l-.34-.42c-.33,0-.56.34-.67,1q-2.18,9.87-2.67,12.46a14.94,14.94,0,0,1-1.26,3.26A1.07,1.07,0,0,0,85.33,77.29Zm6,38.32v.08h.08v-.08Zm.75-68.76v.66c0,.56.2.84.59.84h.08c.34,0,.81-.75,1.42-2.26a6,6,0,0,0,.25-1.59v-.92a4.27,4.27,0,0,1,.59-2,9.08,9.08,0,0,0,1-4.1,10.25,10.25,0,0,1,1-3.18c-.06-.5-.09-.84-.09-1V33a8.15,8.15,0,0,1,.76-2.85q.5-2.25,2.17-11.62Q101,13.3,102.72,6.11a.24.24,0,0,1,.09-.17A.74.74,0,0,0,102,5.1c-.5,0-1,1.26-1.34,3.77q-1.34,7.77-3.26,14.89-2.25,8.7-2.26,10.29a17,17,0,0,1-.92,3.18A48.69,48.69,0,0,0,92.6,44.5C92.27,45.9,92.1,46.68,92.1,46.85ZM96,47.93v.17a.65.65,0,0,0,.17.5c.39,0,.58-.25.58-.75v-.42l-.25-.25h-.17A1,1,0,0,0,96,47.93Zm10.29,32.88v.25c0,.28.17.42.5.42.56,0,.84-.31.84-.92a.6.6,0,0,0-.59-.42h-.08A.59.59,0,0,0,106.24,80.81Zm2.42-.34a4.16,4.16,0,0,0,1,.17h.42a3.64,3.64,0,0,0,2.51-1.09,4.66,4.66,0,0,0-1-.16h-.25A4.05,4.05,0,0,0,108.66,80.47Zm7.12-2.34c0-.11-.12-.19-.34-.25h-.17c-.22,0-.36.17-.42.5a6,6,0,0,0-2,1.09,9.94,9.94,0,0,0,1.34.08h.58A12.34,12.34,0,0,0,120.54,78v-.08h-1.33A23.79,23.79,0,0,0,115.78,78.13ZM121,77.8H121a55.11,55.11,0,0,0,13.56-1.59v-.09c-1.17-.11-2.21-.16-3.1-.16a39.69,39.69,0,0,0-5.18.5,27.07,27.07,0,0,1-2.85.25A7.44,7.44,0,0,0,121,77.8Zm14-1.68v.09h.17v-.09Zm.42,0a1.75,1.75,0,0,0,.84.17,1.83,1.83,0,0,0,1.17-.5h-.84A2.36,2.36,0,0,0,135.35,76.12Zm10,20.5h.09v1.09a26.62,26.62,0,0,1-1.34,9,13.3,13.3,0,0,0-.42,3V110a10.52,10.52,0,0,0,.17,1.59c0,.28-.36.76-1.09,1.42,0,.06-.05.09-.17.09Q143.64,105.48,145.3,96.62Zm10.46-51.95v.84c0,1.5.36,2.26,1.09,2.26a1.69,1.69,0,0,0,.92-.67,17.34,17.34,0,0,0,.84-3.27,4.44,4.44,0,0,1,1.08-1.5,2,2,0,0,0,.5-1,1.81,1.81,0,0,0-.75-1.25V39.9a20.65,20.65,0,0,0,.59-4.43,20.39,20.39,0,0,1,.42-3.43c0-.84-.26-1.31-.76-1.42h-.08c-.67,0-1.26,1.17-1.76,3.51a12.63,12.63,0,0,0-.5,3.6A22.58,22.58,0,0,1,156.26,42,6.13,6.13,0,0,0,155.76,44.67Zm.75-.67h.17c.22,0,.42.17.59.5a.75.75,0,0,1-.67.5c-.34-.11-.5-.27-.5-.5S156.23,44,156.51,44Z"/><path class="cls-1" d="M220.71,60.39c.43.56.71,2.25-1,2.4a.57.57,0,0,0-.43,1c1.13,1,.57,2.12.29,3.11-1.13,3.8-2.54,7.47-3.39,11.42-.42,2-1.13,3.81-1.13,5.78a2.45,2.45,0,0,1-1.55,2.12.9.9,0,0,1-1.27.14c-1.41-1.41-3-.71-4.37-.14a2.57,2.57,0,0,1-2.82-.71c-2.4-1.83-3.1-4.51-3.24-7.33a52.91,52.91,0,0,1,.56-10.58,15.57,15.57,0,0,1,.14-2.4A4.86,4.86,0,0,0,200,66.45a.9.9,0,0,0-.56-1.13.8.8,0,0,0-.57.43c-.14.56-.28,1,.43,1.27-3,1.41-4.8,4-6.91,6.2-6.49,7.2-10.44,15.94-14,24.83v.7c1-.28.85-1.41,1.27-2.11.57-.85.57-2.12,1.55-2.68-.28,2.53-1.69,4.65-2.39,6.91-1.84,5.36-3.81,10.57-5.08,15.93-.42,2.12-1.27,3.81-3.38,4.66-.57-.57-.15-1.41-.57-2.12-.28,0-.42.28-.56.43-1,1.55-2,3-4.23,2.53-.29,0-.57.29-1,.43a2.58,2.58,0,0,1-1.27.56c-.42,0-1.13,0-1.27-.28-.85-2-3.67-.71-4.65-2.54a11,11,0,0,1-.71-3,108.41,108.41,0,0,1,1.41-16.64c1.69-10.58,4.09-21,6.77-31.31,1.27-4.8,2.68-9.6,4.09-14.39a6.49,6.49,0,0,1,2.4-3.67c1.41-1.13,1.83-1,2.54.71.14.28.14.7.28,1,.85,0,1-.85,1.41-1.27.14-.29.7-.57.85-.29,1,1.56,2.82,1.13,4.09,2.4a6.32,6.32,0,0,1,2,5.36,9.83,9.83,0,0,0,1.13,6.21,7,7,0,0,0,3.1-2.54,80.52,80.52,0,0,1,18.19-13.26l.15-.14c3.38-2.4,6.77-1.55,10-.14a7.7,7.7,0,0,1,2.4,1.27c2.39,1.83,4.51,3.81,3.66,7.19A3.55,3.55,0,0,0,220.71,60.39ZM167.12,75.76c-3.24,10-4.94,20.45-6.35,30.89a1.87,1.87,0,0,0,1-1.13C163.74,95.65,165,85.63,167.12,75.76Zm1.83-7.9c0-.28-.42-.42-.56-.7l-.28.28a.86.86,0,0,0,.42.85A.31.31,0,0,0,169,67.86Zm5.36,1.27c0-.42-.14-.7-.14-1.13h-.42l-.42.85c-.14.28-.29.71.14.85S174.31,69.56,174.31,69.13Zm1.84,12.27c.7-.28.56-.84.42-1.55C176.29,80.42,176,80.84,176.15,81.4Zm2.25,17.49a11.28,11.28,0,0,0-2,5.5,16,16,0,0,0,2-4.51C178.54,99.6,178.4,99.17,178.4,98.89Zm12.27-35.68A13,13,0,0,0,187,65.75a75.54,75.54,0,0,0-5.36,6.2c-.28.29-1,.29-.57.85s.85.56,1.27,0A30.14,30.14,0,0,1,185,69.56C186.87,67.44,188.7,65.32,190.67,63.21ZM181.37,94h-.15v-.15h.15c.14-2.53,1.83-4.37,3-6.62-1,2.25-1.55,4.65-3,6.62ZM190,74.07c-3.1,1.55-4.23,4.65-5.36,7.61C186.44,79.15,188.28,76.61,190,74.07Z"/><path class="cls-1" d="M271.07,54a12.59,12.59,0,0,1,2.68,8.6,53.48,53.48,0,0,1-1.13,8.19c-.43,1.26.42,2.11.7,3.1.71,1.55.28,2.54-1.41,2.68a14.32,14.32,0,0,0-7.47,3.24,95.34,95.34,0,0,0-9.88,8.46c-1.27,1.13-2.68,1.84-3.8,3.25-3.95,4.79-8.18,9.31-10.44,15.37-.28.71-.57,1.27-.85,2.12-.42,1.83.43,3,2.4,3.24a10.22,10.22,0,0,0,5.08-1,49.71,49.71,0,0,0,13.82-7.75,20.54,20.54,0,0,0,3.81-4.66c.28-.56.56-1.55,1.55-.7.42.42.7,0,.85-.29a4.71,4.71,0,0,1,4.93-1c1.55.7,2,1.41,1.13,3a15.87,15.87,0,0,1-3.38,4.65,63.49,63.49,0,0,1-20.17,12.41,38.88,38.88,0,0,1-7.9,2.4,17.62,17.62,0,0,1-9-.42,10.49,10.49,0,0,1-7.33-7.19c-.42-1.27-1.13-2.54-1.55-4-1-3.25-.57-6.63-1-9.88a59.22,59.22,0,0,1,1.69-16.5,62.32,62.32,0,0,1,15.09-28.35c2.68-3.1,5.93-5.78,10.16-6.34C258.09,45.44,265.57,47.27,271.07,54Zm-40.2,17.21c-.56,0-.7.42-.85.84-1.41,4.94-3,9.74-4.37,14.67a46,46,0,0,0-.42,19.61,5.35,5.35,0,0,0,.7,1.55c0,.14.43.42.57.28s.42-.28.56-.56c.28-.43,0-.85,0-1.27a82.38,82.38,0,0,1-.56-10.16c.28-7.61,1.27-14.95,4.09-22a6.82,6.82,0,0,0,.7-2.4C231.43,71.53,231.29,71.39,230.87,71.25Zm-2.68,39.35a.71.71,0,0,0-1-.57c-.56,0-.7.57-.56,1s.42.71.85.56A.93.93,0,0,0,228.19,110.6Zm2.4-4.37a70.6,70.6,0,0,1-1-13.26,5.87,5.87,0,0,0-1.27,4.37c.28,1.55.57,3.1.71,4.65C229.6,105.1,229.6,105.1,230.59,106.23Zm-.85-15.38a1.38,1.38,0,0,0,.14-1.27c-.14-.28-.42-.28-.42,0A1.13,1.13,0,0,0,229.74,90.85ZM264,67.58c-.56-4.37-1.69-8.46-4.79-11.7-1.55-1.7-2.26-1.84-4-.43a39.08,39.08,0,0,0-7.9,7.34c-2.4,3.1-4.09,6.62-6.77,9.45a3.21,3.21,0,0,0-.85,2.25,1.09,1.09,0,0,1-.28,1.27c-2.11,2.82-3,6.07-3.8,9.31a16.2,16.2,0,0,1-1.13,4.23c-1.27-1.69.28-3.1-.29-4.79-2.39,5.07-2.11,10.29-1.41,15.37a13.71,13.71,0,0,0,.43-4.23,11.31,11.31,0,0,1,1-5.08c.71,2.26-.56,4.23.29,6.35.7-.71.56-1.55,1.13-2.12,1.69-2,3.24-4.09,4.79-6.2,4.37-6.35,10-11.57,15.94-16.36,2-1.56,4-3,6.49-3.11C263.87,69,264,68.43,264,67.58ZM234.54,64.9c1-.56,1-1.41,1-2.26C235,63.21,234.11,63.63,234.54,64.9Zm13,19.46c-6.34,4.94-12.13,13.12-12.69,17.78C239.05,96.21,242.72,89.87,247.51,84.36Zm-9,16.65a6.78,6.78,0,0,0-1.7,3.8C238.49,103.83,238.2,102.28,238.49,101Zm1.12,4.51a1.16,1.16,0,0,0-.56,1.41C239.05,106.37,240,106.23,239.61,105.52Zm2.26-4.51a1,1,0,0,0-.56,1.41C241.73,102,242.15,101.57,241.87,101Z"/><path class="cls-1" d="M323.81,54a12.54,12.54,0,0,1,2.68,8.6,51.11,51.11,0,0,1-1.13,8.19c-.42,1.26.43,2.11.71,3.1.7,1.55.28,2.54-1.41,2.68a14.38,14.38,0,0,0-7.48,3.24,95.23,95.23,0,0,0-9.87,8.46c-1.27,1.13-2.68,1.84-3.81,3.25-3.95,4.79-8.18,9.31-10.43,15.37-.29.71-.57,1.27-.85,2.12-.42,1.83.42,3,2.4,3.24a10.24,10.24,0,0,0,5.08-1,49.71,49.71,0,0,0,13.82-7.75,20.54,20.54,0,0,0,3.81-4.66c.28-.56.56-1.55,1.55-.7.42.42.7,0,.84-.29a4.73,4.73,0,0,1,4.94-1c1.55.7,2,1.41,1.13,3a15.9,15.9,0,0,1-3.39,4.65,63.28,63.28,0,0,1-20.17,12.41,38.6,38.6,0,0,1-7.89,2.4,17.62,17.62,0,0,1-9-.42,10.46,10.46,0,0,1-7.33-7.19c-.43-1.27-1.13-2.54-1.56-4-1-3.25-.56-6.63-1-9.88a59.22,59.22,0,0,1,1.69-16.5,62.23,62.23,0,0,1,15.09-28.35c2.68-3.1,5.92-5.78,10.15-6.34C310.84,45.44,318.31,47.27,323.81,54ZM283.62,71.25c-.57,0-.71.42-.85.84-1.41,4.94-3,9.74-4.37,14.67a46,46,0,0,0-.42,19.61,5.35,5.35,0,0,0,.7,1.55c0,.14.42.42.57.28s.42-.28.56-.56c.28-.43,0-.85,0-1.27a80.47,80.47,0,0,1-.56-10.16c.28-7.61,1.26-14.95,4.08-22a6.63,6.63,0,0,0,.71-2.4C284.18,71.53,284,71.39,283.62,71.25Zm-2.68,39.35a.72.72,0,0,0-1-.57c-.56,0-.7.57-.56,1s.42.71.84.56A.93.93,0,0,0,280.94,110.6Zm2.39-4.37a71.43,71.43,0,0,1-1-13.26,5.87,5.87,0,0,0-1.27,4.37c.28,1.55.56,3.1.7,4.65C282.35,105.1,282.35,105.1,283.33,106.23Zm-.84-15.38a1.38,1.38,0,0,0,.14-1.27c-.14-.28-.42-.28-.42,0A1.13,1.13,0,0,0,282.49,90.85Zm34.27-23.27c-.56-4.37-1.69-8.46-4.79-11.7-1.56-1.7-2.26-1.84-4-.43a38.56,38.56,0,0,0-7.9,7.34c-2.4,3.1-4.09,6.62-6.77,9.45a3.21,3.21,0,0,0-.85,2.25,1.13,1.13,0,0,1-.28,1.27c-2.12,2.82-3,6.07-3.81,9.31a15.45,15.45,0,0,1-1.13,4.23c-1.27-1.69.29-3.1-.28-4.79-2.4,5.07-2.11,10.29-1.41,15.37a14,14,0,0,0,.42-4.23,11.32,11.32,0,0,1,1-5.08c.71,2.26-.56,4.23.28,6.35.71-.71.57-1.55,1.13-2.12,1.69-2,3.25-4.09,4.8-6.2,4.37-6.35,10-11.57,15.93-16.36,2-1.56,3.95-3,6.49-3.11C316.62,69,316.76,68.43,316.76,67.58ZM287.28,64.9c1-.56,1-1.41,1-2.26C287.71,63.21,286.86,63.63,287.28,64.9Zm13,19.46c-6.35,4.94-12.13,13.12-12.69,17.78C291.8,96.21,295.46,89.87,300.26,84.36Zm-9,16.65a6.77,6.77,0,0,0-1.69,3.8C291.23,103.83,291,102.28,291.23,101Zm1.13,4.51a1.16,1.16,0,0,0-.56,1.41C291.8,106.37,292.78,106.23,292.36,105.52Zm2.26-4.51a1,1,0,0,0-.57,1.41C294.48,102,294.9,101.57,294.62,101Z"/><path class="cls-1" d="M376.56,54a12.54,12.54,0,0,1,2.68,8.6,51.11,51.11,0,0,1-1.13,8.19c-.42,1.26.43,2.11.71,3.1.7,1.55.28,2.54-1.41,2.68a14.38,14.38,0,0,0-7.48,3.24,95.23,95.23,0,0,0-9.87,8.46c-1.27,1.13-2.68,1.84-3.81,3.25-3.95,4.79-8.18,9.31-10.44,15.37-.28.71-.56,1.27-.84,2.12-.43,1.83.42,3,2.4,3.24a10.18,10.18,0,0,0,5.07-1,49.57,49.57,0,0,0,13.82-7.75,20.28,20.28,0,0,0,3.81-4.66c.29-.56.57-1.55,1.55-.7.43.42.71,0,.85-.29a4.73,4.73,0,0,1,4.94-1c1.55.7,2,1.41,1.13,3a15.9,15.9,0,0,1-3.39,4.65A63.28,63.28,0,0,1,355,116.94a38.88,38.88,0,0,1-7.9,2.4,17.59,17.59,0,0,1-9-.42,10.49,10.49,0,0,1-7.34-7.19c-.42-1.27-1.12-2.54-1.55-4-1-3.25-.56-6.63-1-9.88a59.23,59.23,0,0,1,1.7-16.5A62.23,62.23,0,0,1,345,53.05c2.68-3.1,5.92-5.78,10.15-6.34C363.58,45.44,371.06,47.27,376.56,54ZM336.37,71.25c-.57,0-.71.42-.85.84-1.41,4.94-3,9.74-4.37,14.67a46,46,0,0,0-.43,19.61,5.37,5.37,0,0,0,.71,1.55c0,.14.42.42.56.28s.43-.28.57-.56c.28-.43,0-.85,0-1.27A82.39,82.39,0,0,1,332,96.21c.29-7.61,1.27-14.95,4.09-22a6.63,6.63,0,0,0,.71-2.4C336.93,71.53,336.79,71.39,336.37,71.25Zm-2.68,39.35a.72.72,0,0,0-1-.57c-.57,0-.71.57-.57,1s.43.71.85.56A.94.94,0,0,0,333.69,110.6Zm2.39-4.37a71.43,71.43,0,0,1-1-13.26,5.83,5.83,0,0,0-1.27,4.37c.28,1.55.56,3.1.7,4.65C335.1,105.1,335.1,105.1,336.08,106.23Zm-.84-15.38a1.38,1.38,0,0,0,.14-1.27c-.14-.28-.42-.28-.42,0A1.09,1.09,0,0,0,335.24,90.85Zm34.27-23.27c-.57-4.37-1.69-8.46-4.8-11.7-1.55-1.7-2.25-1.84-3.95-.43a38.76,38.76,0,0,0-7.89,7.34c-2.4,3.1-4.09,6.62-6.77,9.45a3.17,3.17,0,0,0-.85,2.25,1.13,1.13,0,0,1-.28,1.27c-2.12,2.82-3,6.07-3.81,9.31A15.45,15.45,0,0,1,340,89.3c-1.27-1.69.28-3.1-.28-4.79-2.4,5.07-2.12,10.29-1.41,15.37a14,14,0,0,0,.42-4.23,11.19,11.19,0,0,1,1-5.08c.71,2.26-.56,4.23.28,6.35.71-.71.57-1.55,1.13-2.12,1.69-2,3.24-4.09,4.8-6.2,4.37-6.35,10-11.57,15.93-16.36,2-1.56,3.95-3,6.49-3.11C369.37,69,369.51,68.43,369.51,67.58ZM340,64.9c1-.56,1-1.41,1-2.26C340.46,63.21,339.61,63.63,340,64.9Zm13,19.46c-6.35,4.94-12.13,13.12-12.7,17.78C344.54,96.21,348.21,89.87,353,84.36ZM344,101a6.7,6.7,0,0,0-1.69,3.8C344,103.83,343.7,102.28,344,101Zm1.13,4.51a1.15,1.15,0,0,0-.57,1.41C344.54,106.37,345.53,106.23,345.11,105.52Zm2.26-4.51a1,1,0,0,0-.57,1.41C347.22,102,347.65,101.57,347.37,101Z"/></g></g></svg>