<svg xmlns="http://www.w3.org/2000/svg" width="15.951" height="16.922" viewBox="0 0 15.951 16.922">
  <g id="Group_37" data-name="Group 37" transform="translate(-105 -60)">
    <path id="Path_33" data-name="Path 33" d="M25.075,11.914H5.395A.9.9,0,0,1,4.5,11.02h0a.9.9,0,0,1,.895-.895h19.68a.9.9,0,0,1,.895.895h0A.9.9,0,0,1,25.075,11.914Z" transform="translate(110.644 49.804) rotate(47)"/>
    <path id="Path_52" data-name="Path 52" d="M20.575,0H.895A.9.9,0,0,0,0,.895H0a.9.9,0,0,0,.895.895h19.68a.9.9,0,0,0,.895-.895h0A.9.9,0,0,0,20.575,0Z" transform="translate(120.951 61.22) rotate(133)"/>
  </g>
</svg>
