<svg id="discord" xmlns="http://www.w3.org/2000/svg" width="33.72" height="36.785" viewBox="0 0 33.72 36.785">
  <path id="Path_46" data-name="Path 46" d="M4.954,32.487H26.809l-1.044-3.38,2.5,2.143L30.551,33.3l4.169,3.484V3.793A4.068,4.068,0,0,0,30.661,0L4.962,0A3.913,3.913,0,0,0,1,3.8V28.692a3.836,3.836,0,0,0,3.954,3.795ZM21.121,8.71l-.051.018.018-.018Zm-11.7,1.945a9.455,9.455,0,0,1,5.414-1.947l.21.207a11.156,11.156,0,0,0-5,2.356s.417-.2,1.145-.515a17.5,17.5,0,0,1,14.368.616,12.606,12.606,0,0,0-4.788-2.356l.285-.28a9.464,9.464,0,0,1,5.332,1.931,23.66,23.66,0,0,1,2.826,10.76A8.168,8.168,0,0,1,23.2,24.073s-.723-.818-1.238-1.533a6.19,6.19,0,0,0,3.433-2.152,22.556,22.556,0,0,1-2.175,1.13,14.554,14.554,0,0,1-2.8.82c-4.42.717-6.9-.483-9.247-1.435l-.8-.408A6.152,6.152,0,0,0,13.7,22.647c-.63.719-1.254,1.536-1.254,1.536-4.27-.1-5.827-2.768-5.827-2.768a23.716,23.716,0,0,1,2.809-10.76Z" transform="translate(-1 0)" fill="#707070"/>
  <path id="Path_47" data-name="Path 47" d="M15,14.2a2.051,2.051,0,0,0,0-4.1v0a2.049,2.049,0,0,0,0,4.1Z" transform="translate(5.402 5.378)" fill="#707070"/>
  <path id="Path_48" data-name="Path 48" d="M10.377,14.2a2.051,2.051,0,0,0,.006-4.1l-.006,0a2.049,2.049,0,0,0,0,4.1Z" transform="translate(2.942 5.378)" fill="#707070"/>
</svg>
