<svg xmlns="http://www.w3.org/2000/svg" width="40.162" height="38.49" viewBox="0 0 40.162 38.49">
  <path id="github" d="M20.081.5A19.907,19.907,0,0,0,0,20.233,19.766,19.766,0,0,0,13.731,38.955c1,.186,1.372-.425,1.372-.949,0-.469-.017-1.71-.025-3.355C9.492,35.841,8.314,32,8.314,32A5.26,5.26,0,0,0,6.08,29.117c-1.819-1.223.141-1.2.141-1.2A4.2,4.2,0,0,1,9.3,29.952c1.791,3.017,4.7,2.145,5.849,1.642a4.178,4.178,0,0,1,1.272-2.639c-4.46-.494-9.147-2.191-9.147-9.751a7.539,7.539,0,0,1,2.067-5.295,6.9,6.9,0,0,1,.176-5.223s1.682-.529,5.522,2.023a19.254,19.254,0,0,1,10.041,0c3.815-2.552,5.5-2.023,5.5-2.023a7.1,7.1,0,0,1,.2,5.223A7.57,7.57,0,0,1,32.831,19.2c0,7.581-4.694,9.249-9.162,9.734a4.682,4.682,0,0,1,1.355,3.651c0,2.641-.025,4.763-.025,5.4,0,.517.351,1.135,1.381.937a19.706,19.706,0,0,0,13.782-18.7A19.91,19.91,0,0,0,20.081.5Z" transform="translate(0 -0.5)" fill="#707070"/>
</svg>
