<svg xmlns="http://www.w3.org/2000/svg" width="21.469" height="12.524" viewBox="0 0 21.469 12.524">
  <g id="Icon_ionic-ios-menu" data-name="Icon ionic-ios-menu" transform="translate(-4.5 -10.125)">
    <path id="Path_33" data-name="Path 33" d="M25.075,11.914H5.395A.9.9,0,0,1,4.5,11.02h0a.9.9,0,0,1,.895-.895h19.68a.9.9,0,0,1,.895.895h0A.9.9,0,0,1,25.075,11.914Z"/>
    <path id="Path_34" data-name="Path 34" d="M25.075,18.664H5.395A.9.9,0,0,1,4.5,17.77h0a.9.9,0,0,1,.895-.895h19.68a.9.9,0,0,1,.895.895h0A.9.9,0,0,1,25.075,18.664Z" transform="translate(0 -1.383)"/>
    <path id="Path_35" data-name="Path 35" d="M25.075,25.414H5.395A.9.9,0,0,1,4.5,24.52h0a.9.9,0,0,1,.895-.895h19.68a.9.9,0,0,1,.895.895h0A.9.9,0,0,1,25.075,25.414Z" transform="translate(0 -2.765)"/>
  </g>
</svg>
