<svg id="instagram_4_" data-name="instagram (4)" xmlns="http://www.w3.org/2000/svg" width="36.659" height="36.659" viewBox="0 0 36.659 36.659">
  <path id="Path_50" data-name="Path 50" d="M214.017,210.508A3.508,3.508,0,1,1,210.508,207,3.508,3.508,0,0,1,214.017,210.508Zm0,0" transform="translate(-192.179 -192.179)" fill="#707070"/>
  <path id="Path_51" data-name="Path 51" d="M152.318,137.91a3.485,3.485,0,0,0-2-2,5.823,5.823,0,0,0-1.954-.362c-1.11-.051-1.443-.062-4.253-.062s-3.143.011-4.253.061a5.826,5.826,0,0,0-1.954.362,3.487,3.487,0,0,0-2,2,5.826,5.826,0,0,0-.362,1.954c-.051,1.11-.062,1.443-.062,4.253s.011,3.143.062,4.253a5.824,5.824,0,0,0,.362,1.954,3.486,3.486,0,0,0,2,2,5.816,5.816,0,0,0,1.954.362c1.11.051,1.442.061,4.253.061s3.144-.011,4.253-.061a5.816,5.816,0,0,0,1.954-.362,3.485,3.485,0,0,0,2-2,5.828,5.828,0,0,0,.362-1.954c.051-1.11.061-1.443.061-4.253s-.011-3.143-.061-4.253A5.816,5.816,0,0,0,152.318,137.91Zm-8.2,11.612a5.4,5.4,0,1,1,5.4-5.4A5.4,5.4,0,0,1,144.114,149.522Zm5.618-9.76a1.263,1.263,0,1,1,1.263-1.263A1.263,1.263,0,0,1,149.732,139.762Zm0,0" transform="translate(-125.784 -125.788)" fill="#707070"/>
  <path id="Path_52" data-name="Path 52" d="M18.329,0A18.329,18.329,0,1,0,36.659,18.329,18.331,18.331,0,0,0,18.329,0ZM28.791,22.669a7.722,7.722,0,0,1-.489,2.555A5.382,5.382,0,0,1,25.224,28.3a7.727,7.727,0,0,1-2.555.489c-1.122.051-1.481.063-4.339.063s-3.217-.012-4.34-.063a7.727,7.727,0,0,1-2.555-.489,5.382,5.382,0,0,1-3.078-3.078,7.72,7.72,0,0,1-.489-2.555c-.052-1.123-.064-1.481-.064-4.34s.012-3.217.063-4.339a7.723,7.723,0,0,1,.489-2.555,5.385,5.385,0,0,1,3.079-3.078,7.729,7.729,0,0,1,2.555-.489c1.122-.051,1.481-.063,4.339-.063s3.217.012,4.339.064a7.731,7.731,0,0,1,2.555.489A5.383,5.383,0,0,1,28.3,11.435a7.721,7.721,0,0,1,.489,2.555c.051,1.122.063,1.481.063,4.339S28.843,21.546,28.791,22.669Zm0,0" fill="#707070"/>
</svg>
