<svg xmlns="http://www.w3.org/2000/svg" width="61.858" height="35.131" viewBox="0 0 61.858 35.131">
  <path id="_374518" data-name="374518" d="M40.692,29.255A17.446,17.446,0,1,1,23.245,11.69,17.506,17.506,0,0,1,40.692,29.255m19.139,0c0,9.132-3.906,16.535-8.723,16.535s-8.723-7.4-8.723-16.535S46.29,12.72,51.107,12.72s8.723,7.4,8.723,16.535m7.828,0c0,8.182-1.374,14.815-3.068,14.815s-3.068-6.635-3.068-14.815S62.9,14.44,64.591,14.44s3.067,6.633,3.067,14.815" transform="translate(-5.8 -11.69)" fill="#707070"/>
</svg>
