<svg xmlns="http://www.w3.org/2000/svg" width="34.771" height="34.771" viewBox="0 0 34.771 34.771">
  <path id="twitter_1_" data-name="twitter (1)" d="M17.386,0A17.386,17.386,0,1,0,34.771,17.386,17.388,17.388,0,0,0,17.386,0Zm7.938,13.555q.012.257.011.516A11.277,11.277,0,0,1,13.981,25.425h0a11.3,11.3,0,0,1-6.117-1.793,8.116,8.116,0,0,0,.952.055,8.007,8.007,0,0,0,4.956-1.708,4,4,0,0,1-3.728-2.772,3.977,3.977,0,0,0,1.8-.068,3.992,3.992,0,0,1-3.2-3.912c0-.018,0-.034,0-.051a3.963,3.963,0,0,0,1.807.5,3.994,3.994,0,0,1-1.235-5.327,11.33,11.33,0,0,0,8.225,4.169,3.993,3.993,0,0,1,6.8-3.639,8,8,0,0,0,2.534-.969,4.006,4.006,0,0,1-1.755,2.207,7.959,7.959,0,0,0,2.292-.628,8.11,8.11,0,0,1-1.99,2.067Zm0,0" fill="#707070"/>
</svg>
