<svg xmlns="http://www.w3.org/2000/svg" xmlns:xlink="http://www.w3.org/1999/xlink" width="28.089" height="28.09" viewBox="0 0 28.089 28.09">
  <defs>
    <clipPath id="clip-path">
      <rect width="28.089" height="28.09" fill="none"/>
    </clipPath>
  </defs>
  <g id="Repeat_Grid_1" data-name="Repeat Grid 1" clip-path="url(#clip-path)">
    <g id="Group_32" data-name="Group 32" transform="translate(-0.003 0)">
      <g id="Group_30" data-name="Group 30" transform="translate(0.003 0)">
        <g id="Group_29" data-name="Group 29">
          <path id="Path_44" data-name="Path 44" d="M26.816,14.163V10.215a2.548,2.548,0,0,0-2.35-2.533L20.8,1.278A2.527,2.527,0,0,0,17.333.344L4.764,7.661H2.557A2.556,2.556,0,0,0,0,10.215V25.536A2.556,2.556,0,0,0,2.557,28.09H24.262a2.556,2.556,0,0,0,2.554-2.554V21.588a1.912,1.912,0,0,0,1.277-1.8V15.96A1.912,1.912,0,0,0,26.816,14.163Zm-3.834-6.5H17.417l4.173-2.43ZM20.956,4.124,14.88,7.661h-2.52l7.967-4.638ZM17.975,1.447a1.235,1.235,0,0,1,.948-.128,1.252,1.252,0,0,1,.767.593v0L9.822,7.661H7.3Zm7.563,24.089a1.278,1.278,0,0,1-1.277,1.277H2.557A1.278,1.278,0,0,1,1.28,25.536V10.215A1.278,1.278,0,0,1,2.557,8.938H24.262a1.278,1.278,0,0,1,1.277,1.277v3.83h-3.83a3.83,3.83,0,0,0,0,7.661h3.83v3.83Zm1.277-5.746a.639.639,0,0,1-.638.638H21.708a2.554,2.554,0,1,1,0-5.107h4.469a.639.639,0,0,1,.638.638Z" transform="translate(-0.003 0)"/>
          <path id="Path_45" data-name="Path 45" d="M342.614,277.341a1.277,1.277,0,1,0,1.277,1.277A1.278,1.278,0,0,0,342.614,277.341Z" transform="translate(-320.908 -260.742)"/>
        </g>
      </g>
    </g>
  </g>
</svg>
