<svg xmlns="http://www.w3.org/2000/svg" width="40" height="34" viewBox="0 0 40 34">
  <g id="Group_90" data-name="Group 90" transform="translate(-0.138)">
    <g id="Polygon_1" data-name="Polygon 1" transform="translate(0.138)" fill="none">
      <path d="M16.552,5.861a4,4,0,0,1,6.9,0L36.454,27.972A4,4,0,0,1,33.006,34H6.994a4,4,0,0,1-3.448-6.028Z" stroke="none"/>
      <path d="M 19.99999809265137 5.389232635498047 C 19.10465812683105 5.389232635498047 18.29910850524902 5.84996223449707 17.84515762329102 6.621683120727539 L 4.838829040527344 28.73244285583496 C 4.378437042236328 29.51511383056641 4.372718811035156 30.45296287536621 4.82354736328125 31.24119186401367 C 5.274368286132813 32.02942276000977 6.085628509521484 32.50000381469727 6.993667602539063 32.50000381469727 L 33.00632858276367 32.50000381469727 C 33.91436767578125 32.50000381469727 34.72562789916992 32.02942276000977 35.17645645141602 31.24119186401367 C 35.62727737426758 30.45297241210938 35.62155914306641 29.51512336730957 35.16116714477539 28.73244285583496 L 22.15483856201172 6.621683120727539 C 21.70087814331055 5.84996223449707 20.89533805847168 5.389232635498047 19.99999809265137 5.389232635498047 M 19.99999809265137 3.889228820800781 C 21.33721542358398 3.889228820800781 22.6744327545166 4.546539306640625 23.44773864746094 5.861152648925781 L 36.45406723022461 27.9719123840332 C 38.02261734008789 30.63845252990723 36.09999847412109 34.00000381469727 33.00632858276367 34.00000381469727 L 6.993667602539063 34.00000381469727 C 3.900009155273438 34.00000381469727 1.977378845214844 30.63845252990723 3.545928955078125 27.9719123840332 L 16.5522575378418 5.861152648925781 C 17.32556343078613 4.546539306640625 18.66278076171875 3.889228820800781 19.99999809265137 3.889228820800781 Z" stroke="none" fill="#bc202e"/>
    </g>
    <g id="Group_61" data-name="Group 61" transform="translate(18.177 12.979)">
      <path id="Path_54" data-name="Path 54" d="M12.2,5A1.2,1.2,0,0,0,11,6.2v9.561a1.2,1.2,0,1,0,2.39,0V6.2A1.2,1.2,0,0,0,12.2,5Z" transform="translate(-11 -5)" fill="#bc202e"/>
      <rect id="Rectangle_33" data-name="Rectangle 33" width="1.687" height="1.687" rx="0.844" transform="translate(0.352 14.272)" fill="#bc202e"/>
    </g>
  </g>
</svg>
